<?xml version="1.0" encoding="iso-8859-1"?>
<!-- Uploaded to: SVG Repo, www.svgrepo.com, Generator: SVG Repo Mixer Tools -->
<svg height="800px" width="800px" version="1.1" id="Capa_1" xmlns="http://www.w3.org/2000/svg" xmlns:xlink="http://www.w3.org/1999/xlink" 
	 viewBox="0 0 512 512" xml:space="preserve">
<path style="fill:#E03905;" d="M377.051,247.266c-4.919,0-9.633-1.953-13.11-5.43l-37.483-37.482
	c-3.477-3.478-5.43-8.193-5.43-13.111c0-4.917,1.953-9.634,5.43-13.111l49.195-49.194c7.241-7.241,18.982-7.241,26.222,0
	l37.482,37.482c7.241,7.241,7.241,18.981,0,26.222l-49.194,49.195C386.685,245.311,381.97,247.266,377.051,247.266z"/>
<circle style="fill:#E0E0E0;" cx="259.66" cy="315.247" r="177.865"/>
<path style="fill:#F4F4F4;" d="M255.999,148.604l-104.645,15.245L86.196,274.22l14.833,114.547c0,0,56.861,76.455,59.334,79.843
	c2.472,3.388,66.209,22.413,66.891,21.554c0.682-0.859,28.746,2.906,28.746,2.906L255.999,148.604z"/>
<path style="fill:#707070;" d="M282.849,148.604h-53.696c-7.904,0-14.311-8.302-14.311-18.542V77.055
	c0-10.24,6.407-18.542,14.311-18.542h53.696c7.904,0,14.311,8.302,14.311,18.542v53.007
	C297.16,140.303,290.753,148.604,282.849,148.604z"/>
<path style="fill:#575757;" d="M282.849,58.513h-26.848v90.091h26.848c7.904,0,14.311-8.302,14.311-18.542V77.055
	C297.16,66.815,290.753,58.513,282.849,58.513z"/>
<g>
	<path style="fill:#74D6D0;" d="M296.835,94.991h-82.986c-26.191,0-47.497-21.307-47.497-47.495S187.658,0,213.849,0h82.986
		c26.19,0,47.495,21.307,47.495,47.497C344.33,73.685,323.023,94.991,296.835,94.991z"/>
	<path style="fill:#74D6D0;" d="M256.001,512c-108.489,0-196.75-88.261-196.75-196.75s88.263-196.75,196.75-196.75
		S452.75,206.76,452.75,315.25S364.488,512,256.001,512z M256.001,155.583c-88.041,0-159.667,71.626-159.667,159.667
		s71.627,159.667,159.667,159.667s159.666-71.626,159.666-159.667S344.041,155.583,256.001,155.583z"/>
</g>
<g>
	<path style="fill:#CCF7F5;" d="M255.96,0h-42.111c-26.191,0-47.497,21.307-47.497,47.497c0,26.188,21.307,47.495,47.497,47.495
		h42.111V0z"/>
	<path style="fill:#CCF7F5;" d="M256.001,474.917c-88.041,0-159.667-71.626-159.667-159.667s71.627-159.667,159.667-159.667v-37.084
		c-108.489,0-196.75,88.261-196.75,196.75S147.513,512,256.001,512V474.917z"/>
</g>
<path style="fill:#FF8546;" d="M256.001,268.094c-6.197,0-12.113,1.214-17.538,3.396l-55.455-55.456
	c-7.24-7.241-18.981-7.24-26.222-0.001c-7.241,7.241-7.241,18.981,0,26.222l55.455,55.456c-2.183,5.425-3.396,11.34-3.396,17.537
	c0,26.001,21.154,47.154,47.154,47.154c25.999,0,47.153-21.154,47.153-47.154C303.152,289.247,282.001,268.094,256.001,268.094z
	 M256.001,325.319c-5.553,0-10.071-4.518-10.071-10.071s4.518-10.071,10.071-10.071c5.551,0,10.069,4.518,10.069,10.071
	C266.07,320.802,261.553,325.319,256.001,325.319z"/>
<g>
	<path style="fill:#707070;" d="M256.001,224.412c-10.24,0-18.542-8.302-18.542-18.542v-23.479c0-10.24,8.302-18.542,18.542-18.542
		s18.542,8.302,18.542,18.542v23.479C274.542,216.11,266.242,224.412,256.001,224.412z"/>
	<path style="fill:#707070;" d="M256.001,466.649c-10.24,0-18.542-8.302-18.542-18.542v-23.48c0-10.24,8.302-18.542,18.542-18.542
		s18.542,8.302,18.542,18.542v23.48C274.542,458.349,266.242,466.649,256.001,466.649z"/>
	<path style="fill:#707070;" d="M146.621,333.79h-23.479c-10.24,0-18.542-8.302-18.542-18.542s8.302-18.542,18.542-18.542h23.479
		c10.24,0,18.542,8.302,18.542,18.542C165.163,325.49,156.861,333.79,146.621,333.79z"/>
</g>
<path style="fill:#F5CDB3;" d="M388.86,333.79h-23.479c-10.24,0-18.542-8.302-18.542-18.542s8.302-18.542,18.542-18.542h23.479
	c10.24,0,18.542,8.302,18.542,18.542C407.402,325.49,399.1,333.79,388.86,333.79z"/>
<g>
	<path style="fill:#575757;" d="M256.001,406.086v60.564c10.24,0,18.542-8.302,18.542-18.542v-23.48
		C274.542,414.387,266.242,406.086,256.001,406.086z"/>
	<path style="fill:#575757;" d="M388.86,296.707h-23.479c-10.24,0-18.542,8.302-18.542,18.542s8.302,18.542,18.542,18.542h23.479
		c10.24,0,18.542-8.302,18.542-18.542C407.402,305.008,399.1,296.707,388.86,296.707z"/>
	<path style="fill:#575757;" d="M256.001,163.849v60.562c10.24,0,18.542-8.302,18.542-18.542V182.39
		C274.542,172.15,266.242,163.849,256.001,163.849z"/>
</g>
<path style="fill:#E03905;" d="M256.001,268.094c-0.221,0-0.439,0.014-0.66,0.016v37.101c0.22-0.014,0.438-0.033,0.66-0.033
	c5.551,0,10.069,4.518,10.069,10.071s-4.517,10.071-10.069,10.071c-0.224,0-0.44-0.02-0.66-0.033v37.1
	c0.221,0.003,0.439,0.017,0.66,0.017c25.999,0,47.153-21.154,47.153-47.154C303.154,289.248,282.001,268.094,256.001,268.094z"/>
</svg>