<?xml version="1.0" encoding="iso-8859-1"?>
<!-- Uploaded to: SVG Repo, www.svgrepo.com, Generator: SVG Repo Mixer Tools -->
<svg height="800px" width="800px" version="1.1" id="Capa_1" xmlns="http://www.w3.org/2000/svg" xmlns:xlink="http://www.w3.org/1999/xlink" 
	 viewBox="0 0 512 512" xml:space="preserve">
<path style="fill:#74D6D0;" d="M383.74,287.584H187.412c-9.598,0-17.379-7.781-17.379-17.379V115.407
	c0-9.598,7.781-17.379,17.379-17.379H383.74c9.598,0,17.379,7.781,17.379,17.379v154.797
	C401.119,279.803,393.338,287.584,383.74,287.584z"/>
<path style="fill:#FF8546;" d="M282.188,250.045c-30.728,14.181-71.197,21.992-113.953,21.992s-83.227-7.81-113.953-21.992
	C19.278,233.888,0,210.799,0,185.031v159.143c0,25.768,19.277,48.857,54.281,65.012c30.728,14.183,71.197,21.993,113.954,21.993
	c42.755,0,83.225-7.81,113.953-21.993c35.004-16.156,54.282-39.245,54.282-65.012V185.031
	C336.469,210.799,317.192,233.888,282.188,250.045z"/>
<path style="fill:#F5CDB3;" d="M168.235,272.037c-42.756,0-83.227-7.81-113.953-21.992C19.278,233.888,0,210.799,0,185.031
	c0-25.768,19.278-48.855,54.281-65.01c30.728-14.181,71.197-21.992,113.954-21.992c42.755,0,83.225,7.81,113.953,21.992
	c35.004,16.155,54.282,39.242,54.282,65.01c0,25.769-19.278,48.858-54.282,65.014C251.459,264.227,210.99,272.037,168.235,272.037z"
	/>
<path style="fill:#CCF7F5;" d="M168.235,222.066c-38.613,0-83.705-10.198-83.705-38.937c0-28.736,45.092-38.933,83.705-38.933
	s83.705,10.197,83.705,38.933C251.94,211.868,206.848,222.066,168.235,222.066z"/>
<path style="fill:#E03905;" d="M282.188,250.044c-30.528,14.09-70.676,21.882-113.124,21.982v159.144
	c42.448-0.101,82.594-7.894,113.124-21.984c35.004-16.156,54.282-39.245,54.282-65.012V185.031
	C336.469,210.799,317.192,233.888,282.188,250.044z"/>
<path style="fill:#F0A479;" d="M282.188,120.021c-30.528-14.09-70.676-21.882-113.124-21.982v173.99
	c42.448-0.101,82.594-7.893,113.124-21.982c35.004-16.156,54.282-39.245,54.282-65.014
	C336.469,159.263,317.192,136.175,282.188,120.021z"/>
<path style="fill:#74D6D0;" d="M169.064,144.2v77.863c38.427-0.145,82.876-10.4,82.876-38.934
	C251.94,154.598,207.491,144.345,169.064,144.2z"/>
<path style="fill:#E03905;" d="M494.621,304.791h-64.51c-35.152,0-63.751-28.598-63.751-63.749v-96.469
	c0-35.154,28.599-63.752,63.751-63.752h64.51c9.598,0,17.379,7.781,17.379,17.379v189.213
	C512,297.011,504.219,304.791,494.621,304.791z"/>
<g>
	<path style="fill:#CCF7F5;" d="M71.17,390.913c-9.598,0-17.379-7.781-17.379-17.379v-91.55c0-9.598,7.781-17.379,17.379-17.379
		s17.379,7.781,17.379,17.379v91.55C88.55,383.132,80.768,390.913,71.17,390.913z"/>
	<path style="fill:#CCF7F5;" d="M131.036,372.815c-9.598,0-17.379-7.781-17.379-17.379v-51.509c0-9.598,7.781-17.379,17.379-17.379
		s17.379,7.781,17.379,17.379v51.509C148.415,365.035,140.634,372.815,131.036,372.815z"/>
	<path style="fill:#CCF7F5;" d="M192.626,411.058c-9.598,0-17.379-7.781-17.379-17.379v-84.886c0-9.598,7.781-17.379,17.379-17.379
		c9.598,0,17.379,7.781,17.379,17.379v84.886C210.005,403.277,202.224,411.058,192.626,411.058z"/>
	<path style="fill:#CCF7F5;" d="M256,371.737c-9.598,0-17.379-7.781-17.379-17.379v-65.692c0-9.598,7.781-17.379,17.379-17.379
		s17.379,7.781,17.379,17.379v65.692C273.379,363.956,265.599,371.737,256,371.737z"/>
</g>
</svg>