<?xml version="1.0" encoding="iso-8859-1"?>
<!-- Uploaded to: SVG Repo, www.svgrepo.com, Generator: SVG Repo Mixer Tools -->
<svg height="800px" width="800px" version="1.1" id="Capa_1" xmlns="http://www.w3.org/2000/svg" xmlns:xlink="http://www.w3.org/1999/xlink" 
	 viewBox="0 0 512 512" xml:space="preserve">
<path style="fill:#F5CDB3;" d="M372.199,222.833c-0.232-0.218-0.471-0.432-0.717-0.639c-15.597-13.127-18.843-15.859-16.813-37.375
	c0.012-0.122,0.023-0.246,0.031-0.369l6.549-90.458c11.909-12.662,19.229-29.689,19.229-48.402c0-9.374-7.6-16.973-16.973-16.973
	H148.51c-9.374,0-16.973,7.6-16.973,16.973c0,18.707,7.314,35.729,19.216,48.39c0,0,6.581,90.719,6.592,90.84
	c2.03,21.517-1.215,24.248-16.813,37.375c-0.171,0.145-0.338,0.292-0.502,0.441c-17.453,14.956-27.448,36.647-27.448,59.622
	c0,0.664,0.038,1.327,0.118,1.987l21.708,184.151c1.007,8.547,8.251,14.986,16.857,14.986h209.471c8.606,0,15.85-6.44,16.857-14.986
	L399.3,284.245c0.078-0.66,0.118-1.323,0.118-1.987C399.417,259.382,389.511,237.781,372.199,222.833z"/>
<path style="fill:#F0A479;" d="M372.199,222.833c-0.232-0.218-0.471-0.432-0.717-0.639c-15.597-13.127-18.843-15.859-16.813-37.375
	c0.012-0.122,0.023-0.246,0.031-0.369l6.549-90.458c11.909-12.662,19.229-29.689,19.229-48.402c0-9.374-7.6-16.973-16.973-16.973
	H255.999v454.768h104.736c8.606,0,15.85-6.44,16.857-14.986L399.3,284.247c0.078-0.66,0.118-1.323,0.118-1.987
	C399.417,259.382,389.511,237.781,372.199,222.833z"/>
<g>
	<path style="fill:#FF8546;" d="M123.73,160.944c-0.44-0.568-0.905-1.123-1.427-1.644l-37.871-37.872
		c-6.628-6.629-17.376-6.629-24.004,0c-6.629,6.628-6.629,17.374,0,24.004l8.896,8.896H16.973C7.6,154.328,0,161.927,0,171.301
		c0,9.374,7.6,16.973,16.973,16.973h52.353l-8.896,8.897c-6.629,6.629-6.628,17.375,0,24.004c3.314,3.315,7.658,4.972,12.001,4.972
		c4.344,0,8.688-1.658,12.002-4.972l37.871-37.873C128.41,177.198,128.877,167.602,123.73,160.944z"/>
	<path style="fill:#FF8546;" d="M495.027,154.329h-52.353l8.896-8.896c6.629-6.629,6.629-17.376,0-24.004
		c-6.628-6.628-17.375-6.628-24.004,0l-37.872,37.872c-0.414,0.414-0.803,0.844-1.165,1.289c-2.537,3.112-3.805,6.912-3.805,10.714
		c0,4.344,1.658,8.688,4.972,12.001l37.872,37.873c3.314,3.315,7.658,4.972,12.001,4.972c4.343,0,8.688-1.658,12.001-4.972
		c6.629-6.628,6.629-17.375,0-24.004l-8.897-8.897h52.354c9.374,0,16.973-7.6,16.973-16.973
		C512,161.928,504.4,154.329,495.027,154.329z"/>
</g>
<path style="fill:#4CD6D5;" d="M394.985,255.997c-29.056,7.234-87.105,15.612-138.945,15.612
	c-51.841,0-109.888-8.378-138.945-15.612c-3.05,7.845-4.725,16.38-4.725,25.304l6.057,51.366h0.083h36.788
	c51.463,0,100.743,40.594,100.743,92.057c0-51.462,49.282-92.057,100.744-92.057h36.788h0.083l6.056-51.366
	C399.71,272.378,398.036,263.842,394.985,255.997z"/>
<path style="fill:#06ABA4;" d="M394.985,255.997c-29.056,7.234-87.105,15.612-138.945,15.612c-0.014,0-0.026,0-0.04,0v150.623
	c0.026,0.827,0.04,1.658,0.04,2.491c0-51.462,49.282-92.057,100.744-92.057h36.788h0.083l6.056-51.366
	C399.71,272.378,398.036,263.842,394.985,255.997z"/>
</svg>