<?xml version="1.0" encoding="iso-8859-1"?>
<!-- Uploaded to: SVG Repo, www.svgrepo.com, Generator: SVG Repo Mixer Tools -->
<svg height="800px" width="800px" version="1.1" id="Capa_1" xmlns="http://www.w3.org/2000/svg" xmlns:xlink="http://www.w3.org/1999/xlink" 
	 viewBox="0 0 512 512" xml:space="preserve">
<path style="fill:#F4F4F4;" d="M411.44,512H100.561c-47.597,0-86.32-38.723-86.32-86.319V86.32C14.241,38.723,52.964,0,100.561,0
	H411.44c47.597,0,86.319,38.723,86.319,86.32V425.68C497.759,473.276,459.036,512,411.44,512z"/>
<path style="fill:#F5CDB3;" d="M185.972,477.002c-0.001,0-0.004,0-0.005,0c-26.84-0.004-51.195-22.383-59.228-54.424
	c-6.672-26.621-18.313-45.113-29.571-62.996c-10.272-16.316-19.976-31.73-24.025-50.769c-5.042-23.709-2.984-47.657,5.795-67.435
	c9.498-21.395,26.391-36.098,46.348-40.342c4.012-0.853,8.131-1.286,12.239-1.286c36.243,0,69.571,33.021,79.245,78.517
	c2.225,10.463,3.076,21.192,3.976,32.552c1.688,21.305,3.791,47.822,16.291,85.683c5.775,17.493,3.909,36.544-5.12,52.268
	c-8.121,14.146-21.192,24.048-35.86,27.169C192.74,476.643,189.345,477.002,185.972,477.002z"/>
<path style="fill:#E0E0E0;" d="M411.44,0H256.001v512H411.44c47.597,0,86.319-38.723,86.319-86.319V86.32
	C497.759,38.723,459.036,0,411.44,0z"/>
<path style="fill:#F0A479;" d="M326.03,475.871c-3.376,0-6.77-0.359-10.088-1.064c-14.668-3.119-27.738-13.022-35.859-27.168
	c-9.028-15.725-10.894-34.775-5.12-52.268c12.501-37.862,14.602-64.377,16.291-85.683c0.901-11.359,1.751-22.089,3.976-32.552
	c9.674-45.496,43.001-78.517,79.245-78.517c4.11,0,8.228,0.432,12.239,1.286c19.957,4.244,36.85,18.949,46.348,40.342
	c8.779,19.778,10.837,43.725,5.795,67.435c-4.049,19.04-13.753,34.452-24.025,50.77c-11.258,17.882-22.9,36.375-29.571,62.995
	C377.227,453.492,352.871,475.871,326.03,475.871z"/>
<path style="fill:#74D6D0;" d="M344.471,176.486H167.529c-9.747,0-17.65-7.902-17.65-17.65c0-58.516,47.605-106.122,106.121-106.122
	s106.12,47.605,106.12,106.122C362.12,168.584,354.218,176.486,344.471,176.486z"/>
<path style="fill:#CCF7F5;" d="M256.001,176.486h-88.471c-9.747,0-17.65-7.902-17.65-17.65c0-58.516,47.605-106.122,106.121-106.122
	V176.486z"/>
<path style="fill:#707070;" d="M255.999,161.406c-9.747,0-17.65-7.902-17.65-17.65V99.521c0-9.747,7.902-17.65,17.65-17.65
	c9.747,0,17.65,7.902,17.65,17.65v44.236C273.649,153.504,265.748,161.406,255.999,161.406z"/>
<path style="fill:#575757;" d="M256.001,81.871v79.535c9.747,0,17.65-7.902,17.65-17.65V99.521
	C273.649,89.774,265.748,81.871,256.001,81.871z"/>
</svg>